<?xml version="1.0" standalone="no"?>
<!DOCTYPE svg PUBLIC "-//W3C//DTD SVG 20010904//EN"
 "http://www.w3.org/TR/2001/REC-SVG-20010904/DTD/svg10.dtd">
<svg version="1.0" xmlns="http://www.w3.org/2000/svg"
 width="800.000000pt" height="800.000000pt" viewBox="0 0 800.000000 800.000000"
 preserveAspectRatio="xMidYMid meet">

<g transform="translate(0.000000,800.000000) scale(0.100000,-0.100000)"
fill="#000000" stroke="none">
<path d="M2696 6588 c-28 -94 -44 -135 -82 -210 -90 -178 -114 -258 -115 -378
0 -57 7 -113 21 -168 l22 -83 -34 -55 c-58 -97 -240 -315 -252 -303 -2 2 2 54
10 114 8 61 14 160 14 220 -1 61 1 126 5 147 6 31 4 37 -15 43 -24 8 -60 -18
-60 -44 0 -8 10 -26 23 -40 23 -26 23 -28 17 -176 -5 -97 -15 -182 -29 -240
-20 -82 -31 -103 -116 -230 -51 -77 -116 -183 -144 -235 l-51 -95 0 66 c0 73
7 90 134 351 36 73 72 162 80 198 30 124 16 276 -36 410 -37 95 -61 104 -71
25 -7 -51 -32 -104 -87 -185 -89 -132 -122 -229 -122 -363 0 -108 13 -188 47
-287 23 -67 24 -82 19 -194 -6 -104 -12 -139 -46 -246 -22 -69 -43 -129 -45
-133 -11 -19 -41 27 -46 69 -3 27 -13 55 -26 68 -15 16 -21 35 -21 72 0 57
-17 95 -46 108 -17 8 -23 22 -27 66 -8 76 -15 90 -43 90 -24 0 -25 -2 -40 -76
-3 -18 -11 -22 -36 -20 -32 1 -33 -1 -36 -41 -2 -31 -8 -44 -23 -48 -32 -10
-22 -42 31 -97 28 -28 50 -59 50 -68 0 -10 11 -32 25 -51 14 -19 33 -47 44
-62 10 -16 35 -40 55 -53 39 -27 40 -30 70 -184 20 -102 37 -132 45 -80 3 23
4 23 11 5 6 -17 13 -8 43 51 44 87 119 182 195 247 143 122 372 255 544 316
l88 30 14 -27 c10 -20 270 -661 373 -919 3 -7 17 -13 32 -13 58 0 68 9 99 88
235 590 447 1101 464 1119 13 13 33 23 50 23 15 0 28 5 28 10 0 6 -68 10 -185
10 -117 0 -185 -4 -185 -10 0 -6 38 -10 93 -10 50 0 97 -4 103 -8 21 -14 32
-45 24 -71 -4 -14 -96 -239 -204 -500 -108 -261 -199 -485 -202 -498 -8 -31
-20 -29 -29 5 -14 59 -428 1048 -443 1060 -13 10 -4 12 51 12 38 0 67 4 67 10
0 6 -63 10 -170 10 -107 0 -170 -4 -170 -10 0 -5 15 -10 34 -10 43 0 61 -23
110 -145 37 -91 39 -115 11 -115 -32 0 -161 -52 -259 -104 -307 -162 -499
-333 -564 -501 -11 -27 -12 -24 -6 25 10 104 36 205 65 261 39 72 124 160 221
227 69 47 81 52 115 46 47 -7 76 18 71 63 -3 25 -7 28 -45 31 -39 3 -45 0 -63
-30 -10 -18 -49 -53 -85 -76 -36 -24 -92 -69 -125 -99 -33 -30 -60 -50 -60
-43 0 48 144 339 240 485 97 146 174 220 293 279 128 64 139 62 239 -30 86
-78 144 -97 283 -91 132 6 204 28 308 96 87 58 192 155 183 170 -4 6 -31 11
-60 11 -29 0 -113 15 -187 34 -170 43 -254 51 -355 36 -105 -16 -193 -50 -270
-106 -36 -25 -90 -56 -122 -70 l-57 -24 72 70 c193 187 367 274 573 287 113 7
197 -10 212 -43 13 -29 48 -32 71 -6 35 38 6 80 -40 59 -16 -7 -43 -7 -92 1
-86 15 -214 15 -260 2 -119 -34 64 58 218 109 65 22 111 31 156 31 76 0 165
-17 170 -33 63 -181 118 -236 373 -367 58 -29 127 -74 157 -102 30 -27 59 -47
65 -43 26 16 -29 218 -81 300 -74 116 -140 177 -259 236 -72 35 -149 47 -213
31 -43 -11 -117 -6 -117 8 0 19 296 45 347 31 21 -6 72 -38 113 -72 139 -112
221 -147 365 -156 137 -8 450 52 450 87 0 16 -208 149 -337 214 -203 103 -391
102 -558 -4 -40 -25 -59 -29 -177 -39 -147 -12 -289 -39 -433 -81 -52 -16 -96
-27 -97 -26 -2 2 21 26 51 54 49 46 60 52 98 52 191 0 348 85 505 272 103 123
157 177 233 228 34 23 58 46 53 50 -4 5 -100 2 -212 -6 -195 -13 -208 -16
-283 -48 -229 -99 -373 -245 -371 -376 0 -26 4 -56 7 -67 5 -16 -15 -40 -104
-122 -150 -137 -200 -160 -141 -64 69 113 123 267 138 393 3 30 12 67 19 82
17 33 9 58 -20 58 -43 0 -63 -53 -31 -80 18 -15 15 -41 -22 -180 -39 -150
-151 -362 -205 -391 -13 -6 -69 -43 -125 -80 -57 -38 -105 -69 -108 -69 -17 0
34 66 108 141 67 69 94 105 126 171 72 149 73 230 1 490 -22 80 -40 149 -40
152 0 12 -21 6 -24 -6z m903 -72 c-165 -58 -308 -160 -399 -285 -24 -33 -48
-61 -52 -61 -11 0 9 58 36 105 30 50 116 129 192 175 66 40 207 90 254 90 31
0 28 -3 -31 -24z m166 -53 c-101 -96 -231 -197 -348 -270 -91 -56 -216 -118
-223 -110 -9 9 150 154 245 222 112 81 117 96 12 39 -72 -39 -127 -80 -209
-157 -29 -27 -56 -47 -59 -44 -11 12 53 104 115 165 74 74 161 133 241 163 97
37 214 68 261 68 l45 0 -80 -76z m-1027 -40 c18 -70 0 -317 -29 -403 -36 -111
-75 -169 -43 -65 29 93 44 220 44 368 0 81 4 147 8 147 5 0 14 -21 20 -47z
m-67 -318 c-17 -95 -94 -316 -106 -303 -3 3 2 27 10 54 9 27 20 117 25 199 11
174 23 248 53 325 l22 55 3 -135 c2 -74 -2 -162 -7 -195z m349 301 c0 -3 -4
-8 -10 -11 -5 -3 -10 -1 -10 4 0 6 5 11 10 11 6 0 10 -2 10 -4z m625 -108
c-90 -102 -243 -197 -340 -213 -35 -6 -27 1 66 55 58 34 150 94 205 135 54 40
101 71 103 69 2 -2 -13 -23 -34 -46z m-866 -186 c-8 -56 -37 -148 -44 -140 -1
2 6 44 16 93 10 50 19 115 20 145 l2 55 7 -45 c5 -25 4 -73 -1 -108z m-209
-152 c-13 -101 -26 -120 -35 -55 -11 67 0 191 21 255 l19 55 3 -85 c2 -47 -2
-123 -8 -170z m1578 155 c72 -17 121 -40 287 -138 159 -93 157 -90 109 -99
-143 -25 -456 23 -614 96 l-55 25 38 0 c21 1 88 -10 150 -23 62 -13 155 -31
207 -41 52 -9 104 -19 115 -22 15 -4 17 -2 9 7 -14 14 -359 105 -435 114 -30
4 -67 10 -84 13 l-30 7 30 7 c69 16 220 8 320 -17 19 -5 19 -4 2 10 -37 29
-153 49 -258 44 -55 -3 -97 -3 -94 0 2 3 26 11 52 18 65 17 175 17 251 -1z
m-206 -174 c91 -37 160 -53 323 -75 179 -26 182 -28 80 -43 -182 -27 -335 12
-460 118 -27 23 -43 40 -35 36 8 -3 50 -20 92 -36z m-234 -37 c133 -75 230
-192 275 -332 54 -166 55 -166 -104 38 -77 99 -140 159 -227 219 -35 23 -61
45 -59 48 12 12 129 -61 197 -123 41 -37 86 -77 99 -88 l24 -21 -19 34 c-35
61 -166 175 -245 212 -41 20 -85 41 -99 47 -22 11 -18 12 33 8 42 -3 75 -15
125 -42z m-1447 -37 c-13 -13 -26 -3 -16 12 3 6 11 8 17 5 6 -4 6 -10 -1 -17z
m1352 -50 c62 -40 135 -95 163 -123 53 -52 117 -134 110 -141 -9 -9 -53 22
-120 84 -39 36 -78 69 -89 74 -16 9 -17 8 -8 -9 6 -11 23 -30 37 -41 35 -28
27 -34 -15 -14 -51 25 -139 111 -172 167 -27 48 -36 76 -24 76 3 0 56 -33 118
-73z m-1542 -53 c2 -91 -3 -116 -54 -309 -31 -115 -65 -235 -76 -265 l-20 -55
0 72 c-1 59 24 226 45 301 2 9 -7 -7 -21 -36 -14 -30 -33 -94 -43 -143 -9 -49
-21 -89 -26 -89 -15 0 4 170 26 235 11 33 42 96 68 140 43 71 65 130 85 229
10 48 15 24 16 -80z m-60 -6 c-6 -18 -36 -76 -66 -128 -58 -103 -95 -209 -95
-272 0 -26 -4 -37 -11 -32 -16 9 -2 124 24 204 20 59 146 274 155 265 3 -2 -1
-19 -7 -37z m1264 12 c-3 -5 -10 -10 -16 -10 -5 0 -9 5 -9 10 0 6 7 10 16 10
8 0 12 -4 9 -10z m-1166 -220 c-13 -89 -41 -168 -82 -230 -16 -25 -27 -38 -24
-30 2 8 26 102 53 207 42 164 50 188 56 160 4 -17 3 -66 -3 -107z m876 59 c42
-5 102 -19 133 -29 53 -18 54 -19 17 -15 -22 2 -111 9 -197 16 -154 13 -197
24 -120 32 72 7 91 7 167 -4z m-65 -50 c36 -6 153 -14 260 -17 l195 -7 -35
-23 c-89 -57 -243 -93 -415 -95 -121 -2 -179 9 -275 50 -32 14 -33 16 -15 23
11 5 101 9 200 10 124 1 173 4 156 11 -42 17 -204 29 -288 21 -89 -8 -98 0
-25 22 57 18 153 19 242 5z m335 -129 c-33 -36 -169 -97 -246 -110 -144 -25
-282 8 -344 82 -14 17 -24 32 -22 34 1 2 32 -7 67 -19 56 -18 86 -21 210 -20
122 0 159 4 235 26 116 32 123 32 100 7z m-1666 -565 c-1 -59 -1 -59 -14 -30
-15 32 -20 97 -8 108 13 14 23 -19 22 -78z m621 -10 c0 -8 -7 -15 -15 -15 -9
0 -12 6 -9 15 4 8 10 15 15 15 5 0 9 -7 9 -15z m-667 -57 c36 -56 36 -76 0
-52 -39 24 -52 44 -53 76 0 37 19 28 53 -24z m117 -85 c0 -43 -13 -65 -24 -37
-8 21 -8 89 1 97 12 12 23 -17 23 -60z m-124 -34 c4 -8 1 -8 -14 0 -12 6 -24
16 -28 22 -4 8 -1 8 14 0 12 -6 24 -16 28 -22z m61 -25 c-3 -3 -12 -4 -19 -1
-8 3 -5 6 6 6 11 1 17 -2 13 -5z m41 -87 c2 -9 -4 -20 -14 -24 -19 -7 -74 46
-74 73 0 13 7 11 42 -8 24 -13 44 -31 46 -41z m72 -17 c-1 -42 -2 -44 -15 -26
-15 20 -20 77 -8 89 12 13 23 -17 23 -63z m35 -169 c-7 -24 -8 -25 -15 -6 -13
31 -11 80 3 94 10 10 13 5 15 -25 2 -20 0 -49 -3 -63z"/>
<path d="M5330 5590 c-38 -38 -16 -100 30 -85 28 9 54 60 41 83 -9 14 -10 13
-11 -10 0 -16 -10 -34 -26 -47 -50 -40 -63 11 -13 53 20 17 25 26 15 26 -9 0
-25 -9 -36 -20z"/>
<path d="M5485 5497 c21 -16 11 -42 -12 -33 -11 4 -13 2 -10 -9 4 -8 -1 -22
-10 -30 -8 -9 -13 -19 -9 -22 7 -7 36 16 36 29 0 5 10 18 21 27 20 16 20 18 4
34 -9 9 -21 17 -28 17 -6 0 -3 -6 8 -13z"/>
<path d="M5400 5441 c0 -5 7 -15 17 -22 15 -13 15 -12 4 9 -12 23 -21 28 -21
13z"/>
<path d="M5540 5374 c0 -8 5 -12 10 -9 6 4 8 11 5 16 -9 14 -15 11 -15 -7z"/>
<path d="M5591 5304 c-12 -15 -21 -32 -21 -38 0 -6 10 2 23 17 12 15 36 32 52
36 l30 9 -32 1 c-23 1 -37 -6 -52 -25z"/>
<path d="M5649 5276 c-17 -20 -35 -30 -50 -29 -21 2 -22 1 -6 -8 24 -14 54 -3
73 26 24 37 12 44 -17 11z"/>
<path d="M5720 5205 c-6 -8 -9 -23 -6 -33 4 -12 0 -24 -10 -33 -14 -11 -19
-10 -35 11 -21 28 -27 14 -6 -14 8 -11 23 -17 38 -14 21 3 24 8 23 41 -1 38
20 53 32 22 4 -8 10 -15 15 -15 5 0 2 11 -7 25 -19 29 -27 31 -44 10z"/>
<path d="M5770 5070 c0 -5 5 -10 10 -10 6 0 10 5 10 10 0 6 -4 10 -10 10 -5 0
-10 -4 -10 -10z"/>
<path d="M5850 5016 c0 -2 9 -6 20 -9 11 -3 18 -1 14 4 -5 9 -34 13 -34 5z"/>
<path d="M5880 4980 c0 -5 -15 -10 -32 -11 l-33 -1 29 -9 c20 -5 34 -4 43 3
15 12 17 28 3 28 -5 0 -10 -4 -10 -10z"/>
<path d="M5780 4975 c0 -13 33 -55 43 -55 5 0 2 9 -7 19 -10 11 -15 25 -11 30
3 6 -1 11 -9 11 -9 0 -16 -2 -16 -5z"/>
<path d="M5882 4874 c-16 -11 -22 -24 -20 -42 2 -22 9 -28 35 -30 22 -2 38 3
52 17 33 33 25 46 -10 17 -37 -31 -69 -34 -69 -6 0 22 54 55 76 46 9 -3 12 -1
9 4 -9 15 -48 12 -73 -6z"/>
<path d="M5990 4751 c0 -5 7 -12 16 -15 28 -11 -4 -39 -35 -31 -20 4 -22 3
-11 -5 19 -13 57 -13 65 0 9 15 -3 47 -20 54 -8 3 -15 1 -15 -3z"/>
<path d="M5921 4690 c6 -16 15 -30 20 -30 6 0 5 9 -1 20 -6 11 -8 25 -5 30 3
6 -1 10 -9 10 -12 0 -13 -5 -5 -30z"/>
<path d="M6053 4610 c4 -8 10 -23 13 -32 4 -10 10 -18 14 -18 13 0 0 38 -18
52 -13 11 -14 11 -9 -2z"/>
<path d="M6018 4583 c-4 -36 -35 -43 -47 -11 -7 16 -10 18 -10 6 -1 -16 24
-48 37 -48 17 1 30 18 34 48 2 17 1 32 -3 32 -4 0 -9 -12 -11 -27z"/>
<path d="M3564 4461 c-74 -32 -84 -131 -22 -218 l35 -50 -44 -27 c-115 -73
-124 -189 -20 -251 72 -41 177 -32 239 22 14 13 21 11 59 -16 43 -32 111 -43
125 -20 4 7 -3 10 -17 9 -41 -4 -46 -1 -86 41 l-40 40 14 52 c7 28 13 65 13
82 0 35 15 55 41 55 10 0 21 5 24 10 4 6 -25 10 -80 10 -55 0 -84 -4 -80 -10
3 -5 15 -10 25 -10 11 0 23 -8 28 -17 9 -19 2 -122 -9 -126 -8 -2 -139 158
-139 170 0 4 18 25 39 45 84 79 58 203 -46 214 -21 2 -48 0 -59 -5z m107 -38
c23 -27 16 -107 -14 -152 -32 -48 -46 -51 -74 -13 -51 69 -62 111 -42 156 21
45 96 51 130 9z m11 -356 l72 -90 -36 -33 c-119 -109 -281 12 -208 155 26 52
68 85 87 70 7 -7 46 -52 85 -102z"/>
<path d="M3980 4180 c0 -5 22 -10 49 -10 86 0 81 34 81 -592 l0 -547 -22 -26
c-15 -16 -40 -29 -68 -34 -32 -6 3 -9 125 -8 94 0 152 2 130 4 -22 2 -55 6
-73 9 -62 10 -62 14 -61 566 0 420 2 487 13 453 8 -22 127 -269 266 -550 l252
-510 23 45 c67 132 505 1049 505 1059 0 6 5 11 11 11 7 0 9 -160 7 -515 l-3
-514 -23 -23 c-17 -17 -39 -25 -85 -29 -34 -3 42 -6 168 -6 152 0 211 2 175 7
-84 13 -100 37 -100 150 0 89 0 90 28 96 136 34 434 235 593 401 110 113 188
254 176 315 -4 23 -4 23 -13 -2 -4 -14 -27 -64 -51 -112 -65 -130 -229 -296
-418 -422 -62 -41 -294 -166 -309 -166 -3 0 -6 203 -6 450 0 437 1 451 20 470
15 15 33 20 70 20 28 0 50 5 50 10 0 6 -49 10 -126 10 l-125 0 -39 -82 c-21
-46 -127 -263 -235 -483 -108 -220 -205 -422 -215 -450 l-19 -50 -10 30 c-6
17 -123 256 -259 532 l-247 503 -117 0 c-72 0 -118 -4 -118 -10z"/>
<path d="M6167 3973 c-2 -5 -7 -53 -11 -108 -11 -156 -24 -225 -56 -290 -34
-69 -123 -172 -205 -235 -46 -36 -64 -43 -94 -42 -46 3 -74 -23 -69 -65 3 -26
6 -28 48 -28 41 0 47 3 61 32 9 18 40 51 70 75 30 23 84 74 122 113 l67 70
-16 -54 c-80 -273 -225 -563 -339 -677 -71 -72 -194 -144 -245 -144 -35 0 -45
6 -140 78 -111 83 -296 81 -467 -6 -87 -45 -255 -198 -265 -242 -2 -10 13 -12
57 -11 33 1 112 -7 175 -18 278 -50 481 -11 637 121 34 29 85 66 114 82 l53
29 -24 -34 c-39 -55 -181 -192 -252 -243 -134 -94 -266 -138 -426 -140 -102
-1 -102 -1 -126 29 -21 26 -26 28 -50 18 -26 -13 -43 -53 -31 -73 5 -8 18 -9
39 -5 17 4 78 7 136 6 93 -2 197 11 265 34 86 29 -191 -119 -301 -161 -66 -25
-147 -30 -228 -16 -35 6 -40 11 -58 60 -41 111 -153 199 -353 277 -98 38 -154
68 -209 110 -26 19 -51 33 -56 30 -15 -9 19 -127 62 -214 106 -218 362 -365
534 -307 36 12 61 14 94 8 l45 -8 -70 -17 c-106 -24 -193 -37 -260 -37 -55 0
-64 4 -150 60 -180 118 -272 142 -445 117 -114 -17 -371 -95 -377 -114 -4 -12
258 -148 367 -191 210 -82 402 -63 548 55 37 31 53 36 142 49 143 20 297 59
429 110 63 25 116 43 118 40 2 -2 -19 -28 -46 -58 -48 -53 -54 -56 -112 -62
-195 -22 -320 -111 -484 -341 -87 -123 -135 -176 -215 -236 -19 -15 -32 -30
-29 -33 9 -10 353 43 422 64 80 25 186 90 263 163 80 74 117 126 140 197 15
45 16 62 6 108 -14 66 -12 69 126 212 113 118 135 120 82 8 -61 -128 -84 -233
-103 -483 -2 -26 2 -30 22 -30 13 0 30 9 37 21 13 18 12 24 -7 49 -21 26 -22
31 -11 114 18 133 46 229 100 343 l49 104 126 101 c70 56 127 98 127 92 0 -22
-36 -77 -86 -132 -110 -119 -177 -309 -154 -436 17 -92 125 -401 141 -401 4 0
11 17 14 38 7 44 37 137 96 292 42 113 43 118 43 240 1 112 -2 133 -26 203
-16 42 -28 85 -28 94 0 34 142 265 214 348 l35 40 1 -155 c0 -85 5 -183 10
-218 7 -39 7 -76 2 -96 -11 -39 1 -66 28 -66 41 0 54 71 17 95 -23 14 -24 23
-31 154 -5 105 -2 166 10 247 15 101 20 116 74 209 74 128 104 189 150 298 35
84 38 87 44 56 13 -66 4 -108 -55 -264 -112 -296 -111 -293 -116 -400 -7 -123
16 -228 74 -338 48 -90 65 -93 75 -12 6 45 24 93 73 190 66 132 94 224 95 313
0 72 -39 240 -72 311 -27 58 -32 81 -39 196 -7 124 -6 136 23 265 17 74 32
136 33 138 2 2 12 -1 23 -7 12 -6 22 -25 26 -50 3 -22 17 -52 30 -68 13 -15
26 -46 30 -68 14 -81 26 -106 56 -111 24 -5 28 -11 33 -52 8 -70 23 -102 47
-102 24 0 43 42 38 82 -4 25 -2 27 31 25 l36 -2 -2 47 c-1 38 2 47 18 51 32 8
22 32 -34 84 -30 27 -57 60 -60 74 -7 29 -91 120 -147 161 -32 23 -38 36 -69
147 -32 115 -44 142 -54 124z m49 -230 c3 -16 8 -34 10 -42 5 -17 -15 -43 -27
-35 -12 7 -11 104 1 104 5 0 12 -12 16 -27z m55 -151 c6 -14 7 -38 4 -52 l-7
-25 -13 25 c-17 30 -20 94 -4 85 5 -4 15 -19 20 -33z m83 8 c26 -9 65 -70 46
-70 -6 0 -26 7 -45 14 -27 12 -35 21 -35 40 0 29 0 29 34 16z m39 -107 c-7 -2
-19 -2 -25 0 -7 3 -2 5 12 5 14 0 19 -2 13 -5z m-55 -72 c3 -32 1 -51 -6 -51
-16 0 -34 64 -26 95 10 39 26 16 32 -44z m117 43 l30 -26 -35 23 c-45 29 -45
29 -34 29 5 0 23 -12 39 -26z m19 -96 c17 -24 21 -58 8 -58 -17 0 -82 82 -82
105 0 12 59 -26 74 -47z m-68 -63 c16 -39 19 -95 4 -95 -11 0 -30 64 -30 103
0 36 8 34 26 -8z m-613 -41 c8 -8 -3 -34 -14 -34 -5 0 -9 9 -9 20 0 19 11 26
23 14z m287 -552 c-6 -52 -9 -96 -7 -99 9 -8 47 172 47 220 0 25 5 49 10 52
13 8 13 -175 0 -233 -6 -24 -33 -93 -61 -154 -42 -91 -52 -125 -56 -185 -4
-42 -10 -70 -15 -65 -4 4 -11 57 -14 118 -6 100 -3 128 35 329 22 121 46 238
53 260 13 39 13 38 16 -55 2 -52 -2 -137 -8 -188z m106 -22 c-3 -41 -14 -100
-25 -130 -23 -67 -121 -251 -121 -229 0 22 32 112 69 189 41 87 61 169 62 255
1 67 1 68 11 30 5 -22 7 -74 4 -115z m-207 -64 c-19 -107 -37 -189 -41 -183
-13 20 -8 179 7 237 15 59 56 153 63 146 2 -3 -11 -92 -29 -200z m-712 91 c37
-14 127 -76 121 -83 -3 -2 -47 3 -99 12 -138 24 -253 8 -459 -60 l-75 -25 45
40 c55 50 141 95 218 113 70 17 206 19 249 3z m96 -112 c31 -10 55 -20 53 -23
-13 -12 -141 -31 -221 -32 -49 -1 -110 -5 -135 -9 -38 -6 -41 -8 -20 -13 83
-21 145 -20 340 8 l35 5 -36 -20 c-58 -32 -157 -43 -324 -36 -110 5 -180 3
-265 -9 -63 -8 -117 -13 -120 -10 -10 11 56 54 129 85 41 17 116 42 165 55 79
21 108 24 216 20 80 -2 146 -10 183 -21z m-1224 -218 c110 -122 153 -159 274
-232 42 -25 77 -48 77 -50 0 -6 -73 21 -116 43 -22 11 -81 52 -132 91 -51 40
-92 66 -92 60 0 -20 115 -123 181 -162 35 -21 97 -48 136 -60 40 -12 73 -26
73 -31 0 -22 -122 3 -196 40 -155 76 -262 208 -318 392 -14 42 12 22 113 -91z
m1116 61 c-32 -19 -249 -22 -325 -5 -65 15 -64 15 140 16 161 0 201 -2 185
-11z m-956 -122 c29 -26 62 -51 73 -57 36 -19 29 -2 -13 35 -48 40 -40 46 24
16 80 -38 197 -161 197 -208 0 -17 -164 69 -255 133 -59 42 -150 129 -168 160
-14 27 81 -27 142 -79z m1196 -73 c-4 -16 -10 -138 -14 -273 -6 -195 -12 -256
-26 -300 l-18 -55 -9 45 c-14 77 -14 330 0 390 23 92 62 220 68 220 4 0 3 -12
-1 -27z m-685 -3 c0 -5 -5 -10 -11 -10 -5 0 -7 5 -4 10 3 6 8 10 11 10 2 0 4
-4 4 -10z m1006 -37 c-11 -11 -19 6 -11 24 8 17 8 17 12 0 3 -10 2 -21 -1 -24z
m-272 -163 c0 -62 -6 -123 -14 -150 l-14 -45 -9 110 c-5 61 -5 144 -1 185 l7
75 16 -35 c11 -25 15 -66 15 -140z m-139 44 c-18 -87 -22 -212 -13 -379 l8
-130 -19 40 c-24 53 -37 272 -21 368 10 65 48 182 56 175 2 -3 -3 -36 -11 -74z
m-1386 11 c29 -7 77 -26 106 -40 57 -29 125 -82 90 -70 -102 35 -227 57 -365
66 -85 6 -168 14 -185 18 -26 7 -20 9 50 23 102 20 235 22 304 3z m1320 -55
c-6 -25 -11 -93 -12 -152 -1 -72 -5 -99 -10 -80 -14 47 -10 167 7 227 20 67
30 70 15 5z m-1352 -26 c46 -8 113 -24 150 -37 57 -18 63 -23 39 -25 -16 -2
-85 3 -155 12 -69 8 -157 17 -196 21 -38 3 -88 8 -110 11 -28 4 -37 3 -30 -4
14 -15 330 -70 456 -80 l104 -8 -45 -15 c-31 -10 -88 -14 -185 -13 -144 1
-151 -6 -24 -25 69 -11 168 -5 249 15 51 12 -4 -16 -73 -37 -87 -27 -221 -23
-315 10 -97 33 -355 162 -345 172 29 29 318 31 480 3z m812 -102 c-13 -10 -46
-34 -74 -52 -44 -29 -159 -120 -273 -215 l-36 -30 31 45 c70 103 187 201 288
242 79 33 97 35 64 10z m82 1 c-26 -49 -162 -185 -289 -291 -20 -17 -22 -21
-7 -16 49 17 135 83 226 171 55 53 99 93 99 89 0 -29 -67 -133 -128 -198 -86
-91 -185 -156 -302 -199 -105 -38 -200 -61 -200 -47 0 17 293 302 369 358 76
57 220 148 234 149 4 1 4 -7 -2 -16z m53 -132 c-43 -114 -148 -217 -299 -291
-55 -27 -120 -52 -145 -55 -41 -6 -38 -4 38 29 150 63 291 184 372 319 47 79
64 78 34 -2z m167 -164 c-10 -9 -11 -8 -5 6 3 10 9 15 12 12 3 -3 0 -11 -7
-18z"/>
<path d="M1822 3923 c-6 -3 -10 -8 -7 -13 3 -5 -11 -18 -30 -30 -37 -23 -38
-40 -2 -40 18 0 19 2 7 11 -11 8 -12 12 -3 16 40 16 74 69 35 56z"/>
<path d="M1753 3903 c9 -2 23 -2 30 0 6 3 -1 5 -18 5 -16 0 -22 -2 -12 -5z"/>
<path d="M1819 3831 c10 -6 1 -11 -28 -16 -22 -4 -41 -11 -41 -16 0 -5 15 -5
33 -2 17 4 42 7 55 8 12 0 22 2 22 6 0 11 -25 29 -39 29 -13 0 -14 -2 -2 -9z"/>
<path d="M1785 3711 c11 -5 34 -10 50 -11 29 -1 29 -1 11 -15 -16 -12 -22 -12
-28 -2 -5 8 -8 7 -8 -5 0 -9 -8 -21 -17 -27 -10 -5 -14 -13 -10 -17 8 -8 89
47 95 65 2 7 -9 11 -30 11 -18 0 -44 3 -58 5 -22 5 -22 4 -5 -4z"/>
<path d="M1827 3562 c-10 -10 -17 -25 -17 -32 0 -7 11 -1 25 14 13 14 33 26
43 26 25 0 46 -25 38 -45 -3 -8 -1 -15 4 -15 16 0 12 37 -6 54 -21 22 -67 20
-87 -2z"/>
<path d="M1820 3502 c0 -12 19 -26 26 -19 2 2 -2 10 -11 17 -9 8 -15 8 -15 2z"/>
<path d="M1850 3412 c0 -4 23 -6 52 -4 46 3 50 1 38 -13 -7 -9 -19 -14 -27
-11 -8 3 -11 2 -8 -3 3 -6 -2 -14 -11 -19 -9 -5 -15 -14 -13 -20 4 -12 89 54
89 69 0 5 -27 9 -60 9 -33 0 -60 -4 -60 -8z"/>
<path d="M1963 3280 c-23 -10 -44 -16 -48 -12 -3 4 -3 -1 0 -11 6 -13 11 -14
27 -6 29 15 35 3 14 -31 -9 -17 -13 -30 -7 -30 5 0 13 9 16 20 4 14 15 20 36
20 19 0 29 5 29 15 0 13 -3 13 -20 3 -17 -11 -22 -10 -30 2 -7 11 -3 18 15 28
24 12 33 23 18 21 -5 0 -27 -9 -50 -19z"/>
<path d="M2070 3175 c0 -12 -70 -51 -83 -47 -5 1 -7 -1 -5 -5 23 -48 33 -63
41 -63 5 0 4 7 -3 15 -7 8 -10 22 -6 30 7 20 36 19 36 -1 0 -8 5 -12 11 -8 8
4 8 9 0 17 -17 17 -13 27 9 27 10 0 24 -8 29 -17 6 -10 10 -13 11 -8 0 6 -9
24 -20 40 -11 17 -20 25 -20 20z"/>
<path d="M2141 3053 c0 -7 -19 -23 -41 -35 -22 -13 -40 -26 -40 -30 0 -12 3
-10 40 17 18 14 35 23 37 21 2 -1 -4 -20 -12 -40 -23 -53 -17 -70 15 -45 15
11 18 17 8 13 -21 -7 -23 8 -7 37 5 11 8 32 6 47 -2 15 -5 22 -6 15z"/>
<path d="M2175 2970 c-3 -6 1 -7 9 -4 18 7 21 14 7 14 -6 0 -13 -4 -16 -10z"/>
<path d="M2250 2880 c0 -5 -6 -7 -13 -4 -7 2 -30 -2 -52 -11 -24 -9 -29 -13
-13 -10 31 6 56 -23 36 -43 -5 -5 -8 -16 -6 -23 2 -6 18 10 36 38 34 53 38 63
22 63 -5 0 -10 -4 -10 -10z m-12 -21 c-2 -6 -8 -10 -13 -10 -5 0 -11 4 -13 10
-2 6 4 11 13 11 9 0 15 -5 13 -11z"/>
<path d="M2345 2675 c0 -15 4 -20 11 -14 6 5 15 5 22 -1 9 -7 9 -7 2 2 -6 8
-5 17 3 27 10 14 10 14 -4 4 -9 -8 -19 -9 -25 -3 -5 5 -9 0 -9 -15z"/>
<path d="M2511 2545 c-24 -65 -25 -68 -9 -63 6 2 13 14 15 27 1 12 10 35 18
51 8 16 11 31 6 35 -5 3 -19 -20 -30 -50z"/>
<path d="M2575 2530 c-3 -6 1 -7 9 -4 18 7 21 14 7 14 -6 0 -13 -4 -16 -10z"/>
<path d="M2540 2510 c-9 -6 -10 -10 -3 -10 6 0 15 5 18 10 8 12 4 12 -15 0z"/>
<path d="M2678 2503 c7 -3 16 -2 19 1 4 3 -2 6 -13 5 -11 0 -14 -3 -6 -6z"/>
<path d="M2625 2457 c-36 -51 -39 -57 -28 -57 16 0 76 81 67 90 -5 4 -22 -11
-39 -33z"/>
<path d="M2722 2420 c-28 -12 -46 -54 -32 -80 10 -18 47 -36 56 -27 3 2 -7 7
-21 11 -34 9 -34 49 1 81 29 27 29 28 -4 15z"/>
<path d="M2770 2404 c8 -10 15 -20 16 -22 1 -2 4 1 7 5 3 5 -4 15 -16 23 -21
12 -21 12 -7 -6z"/>
<path d="M2853 2353 c23 -6 22 -22 -8 -65 -20 -30 -22 -37 -10 -42 8 -3 15 0
15 7 0 7 9 27 20 45 17 28 23 32 36 21 8 -6 17 -10 20 -7 6 7 -63 48 -79 47
-7 -1 -4 -3 6 -6z"/>
<path d="M2956 2258 c-21 -29 -20 -62 1 -79 15 -13 15 -12 4 9 -17 32 5 77 39
77 34 0 40 -45 11 -74 -15 -15 -17 -21 -7 -21 18 0 46 38 46 62 0 46 -67 64
-94 26z"/>
<path d="M3120 2210 c0 -6 -8 -28 -19 -50 -15 -31 -16 -40 -5 -44 8 -3 14 4
16 17 4 31 21 24 31 -12 4 -17 12 -31 17 -31 5 0 4 11 -2 26 -10 22 -10 28 5
39 18 13 23 40 8 49 -5 4 -7 -3 -4 -14 6 -21 -18 -37 -37 -25 -8 5 -6 14 5 31
14 21 14 24 0 24 -8 0 -15 -5 -15 -10z"/>
</g>
</svg>
